{
  "accessors": [
    {
      "bufferView": 2,
      "componentType": 5126,
      "count": 4992,
      "max": [
        0.8470699191093445,
        0.01192566193640232,
        0.853291392326355
      ],
      "min": [
        -0.8470699191093445,
        -6.375406742095947,
        -0.853291392326355
      ],
      "type": "VEC3"
    },
    {
      "bufferView": 2,
      "byteOffset": 59904,
      "componentType": 5126,
      "count": 4992,
      "max": [
        0.9999183416366577,
        0.7627860307693481,
        0.9998959302902222
      ],
      "min": [
        -0.9999183416366577,
        -0.7627918124198914,
        -0.9998959302902222
      ],
      "type": "VEC3"
    },
    {
      "bufferView": 1,
      "componentType": 5126,
      "count": 4992,
      "max": [
        1.000000238418579,
        1.0
      ],
      "min": [
        -3.0919903792892e-07,
        -1.0497987270355225
      ],
      "type": "VEC2"
    },
    {
      "bufferView": 0,
      "componentType": 5125,
      "count": 7488,
      "type": "SCALAR"
    },
    {
      "bufferView": 2,
      "byteOffset": 119808,
      "componentType": 5126,
      "count": 197,
      "max": [
        1.6002639532089233,
        -0.73885178565979,
        1.151208758354187
      ],
      "min": [
        -1.1428152322769165,
        -2.9352846145629883,
        -1.151208758354187
      ],
      "type": "VEC3"
    },
    {
      "bufferView": 2,
      "byteOffset": 122172,
      "componentType": 5126,
      "count": 197,
      "max": [
        0.9927089810371399,
        1.0,
        1.0
      ],
      "min": [
        -0.9927088618278503,
        -1.0,
        -1.0
      ],
      "type": "VEC3"
    },
    {
      "bufferView": 1,
      "byteOffset": 39936,
      "componentType": 5126,
      "count": 197,
      "max": [
        1.0009279251098633,
        1.0
      ],
      "min": [
        -0.0009282480459660292,
        0.01000000536441803
      ],
      "type": "VEC2"
    },
    {
      "bufferView": 0,
      "byteOffset": 29952,
      "componentType": 5125,
      "count": 672,
      "type": "SCALAR"
    }
  ],
  "asset": {
    "extras": {
      "author": "President1990 (https://sketchfab.com/President1990)",
      "license": "CC-BY-4.0 (http://creativecommons.org/licenses/by/4.0/)",
      "source": "https://sketchfab.com/3d-models/basketball-hoop-d5e0f44a6ddd4bb792ec085110f99f28",
      "title": "Basketball Hoop"
    },
    "generator": "Sketchfab-14.64.0",
    "version": "2.0"
  },
  "bufferViews": [
    {
      "buffer": 0,
      "byteLength": 32640,
      "name": "floatBufferViews",
      "target": 34963
    },
    {
      "buffer": 0,
      "byteLength": 41512,
      "byteOffset": 32640,
      "byteStride": 8,
      "name": "floatBufferViews",
      "target": 34962
    },
    {
      "buffer": 0,
      "byteLength": 124536,
      "byteOffset": 74152,
      "byteStride": 12,
      "name": "floatBufferViews",
      "target": 34962
    }
  ],
  "buffers": [
    {
      "byteLength": 198688,
      "uri": "scene.bin"
    }
  ],
  "materials": [
    {
      "doubleSided": true,
      "name": "Material.001",
      "pbrMetallicRoughness": {
        "baseColorFactor": [
          0.8,
          0.8,
          0.8,
          1.0
        ],
        "metallicFactor": 0.0,
        "roughnessFactor": 0.463768
      }
    },
    {
      "doubleSided": true,
      "name": "Material",
      "pbrMetallicRoughness": {
        "baseColorFactor": [
          1.0,
          0.0,
          0.0,
          1.0
        ],
        "metallicFactor": 0.0,
        "roughnessFactor": 0.5
      }
    }
  ],
  "meshes": [
    {
      "name": "Object_0",
      "primitives": [
        {
          "attributes": {
            "NORMAL": 1,
            "POSITION": 0,
            "TEXCOORD_0": 2
          },
          "indices": 3,
          "material": 0,
          "mode": 4
        }
      ]
    },
    {
      "name": "Object_1",
      "primitives": [
        {
          "attributes": {
            "NORMAL": 5,
            "POSITION": 4,
            "TEXCOORD_0": 6
          },
          "indices": 7,
          "material": 1,
          "mode": 4
        }
      ]
    }
  ],
  "nodes": [
    {
      "children": [
        1
      ],
      "matrix": [
        1.0,
        0.0,
        0.0,
        0.0,
        0.0,
        2.220446049250313e-16,
        -1.0,
        0.0,
        0.0,
        1.0,
        2.220446049250313e-16,
        0.0,
        0.0,
        0.0,
        0.0,
        1.0
      ],
      "name": "Sketchfab_model"
    },
    {
      "children": [
        2
      ],
      "name": "root"
    },
    {
      "children": [
        3,
        5
      ],
      "matrix": [
        1.0,
        0.0,
        0.0,
        0.0,
        0.0,
        2.220446049250313e-16,
        1.0,
        0.0,
        0.0,
        -1.0,
        2.220446049250313e-16,
        0.0,
        0.0,
        0.0,
        0.0,
        1.0
      ],
      "name": "GLTF_SceneRootNode"
    },
    {
      "children": [
        4
      ],
      "matrix": [
        0.4433264434337616,
        0.0,
        0.0,
        0.0,
        0.0,
        0.10201761871576309,
        0.0,
        0.0,
        0.0,
        0.0,
        0.4433264434337616,
        0.0,
        0.0,
        0.3364279568195343,
        0.0,
        1.0
      ],
      "name": "Cylinder_2"
    },
    {
      "mesh": 0,
      "name": "Object_4"
    },
    {
      "children": [
        6
      ],
      "matrix": [
        0.37541109323501587,
        0.0,
        0.0,
        0.0,
        0.0,
        0.04460491985082626,
        0.0,
        0.0,
        0.0,
        0.0,
        0.37541109323501587,
        0.0,
        0.0,
        0.38194942474365234,
        0.0,
        1.0
      ],
      "name": "Cylinder.001_3"
    },
    {
      "mesh": 1,
      "name": "Object_6"
    }
  ],
  "scene": 0,
  "scenes": [
    {
      "name": "Sketchfab_Scene",
      "nodes": [
        0
      ]
    }
  ]
}
